<svg width="1080" height="1920" viewBox="0 0 1080 1920" xmlns="http://www.w3.org/2000/svg">
  <defs>
    <linearGradient id="bg" x1="0%" y1="0%" x2="0%" y2="100%">
      <stop offset="0%" style="stop-color:#0B0F19;stop-opacity:1" />
      <stop offset="100%" style="stop-color:#0D1520;stop-opacity:1" />
    </linearGradient>
  </defs>
  <rect width="1080" height="1920" fill="url(#bg)" />
  
  <!-- Updated Logo (Yellow Square + Green Icon) -->
  <g transform="translate(390, 700)">
    <rect width="300" height="300" rx="60" fill="#FFDF00" />
    <g transform="translate(75, 75) scale(6.25)" fill="none" stroke="#009C3B" stroke-width="2" stroke-linecap="round" stroke-linejoin="round">
      <path d="M4.9 19.1C1 15.2 1 8.8 4.9 4.9"/>
      <path d="M7.8 16.2c-2.3-2.3-2.3-6.1 0-8.5"/>
      <circle cx="12" cy="12" r="2" fill="#009C3B"/>
      <path d="M16.2 7.8c2.3 2.3 2.3 6.1 0 8.5"/>
      <path d="M19.1 4.9C23 8.8 23 15.2 19.1 19.1"/>
    </g>
  </g>

  <text x="540" y="400" font-family="sans-serif" font-weight="900" font-size="90" fill="white" text-anchor="middle">Radio Wave</text>
  <text x="540" y="500" font-family="sans-serif" font-weight="900" font-size="90" fill="white" text-anchor="middle">Brasil</text>
  
  <text x="540" y="1400" font-family="sans-serif" font-weight="700" font-size="42" fill="#00D4FF" text-anchor="middle">Ouça Estações ao Vivo</text>
  <text x="540" y="1550" font-family="sans-serif" font-weight="600" font-size="28" fill="white" text-anchor="middle" opacity="0.6">Acesse o link na bio 👆</text>
  
  <rect x="0" y="1800" width="1080" height="120" fill="white" opacity="0.05" />
</svg>
